<svg version="1.1" xmlns="http://www.w3.org/2000/svg" viewBox="0 0 1508.0962890444775 1012" width="3016.192578088955" height="2024">
  <!-- svg-source:excalidraw -->
  
  <defs>
    <style class="style-fonts">
      @font-face {
        font-family: "Virgil";
        src: url("https://excalidraw.com/Virgil.woff2");
      }
      @font-face {
        font-family: "Cascadia";
        src: url("https://excalidraw.com/Cascadia.woff2");
      }
      @font-face {
        font-family: "Assistant";
        src: url("https://excalidraw.com/Assistant-Regular.woff2");
      }
    </style>
    
  </defs>
  <rect x="0" y="0" width="1508.0962890444775" height="1012" fill="#ffffff"></rect><g stroke-linecap="round" transform="translate(260.52486047304905 10) rotate(0 213.5 100.5)"><path d="M32 0 C110.65 -1.79, 190.61 -1.08, 395 0 M32 0 C129.2 -1.64, 227.14 -0.94, 395 0 M395 0 C414.75 -1.26, 425.94 10.85, 427 32 M395 0 C415.63 1.31, 428.01 11.85, 427 32 M427 32 C426.47 82.03, 426.72 131.18, 427 169 M427 32 C428.77 76.67, 427.54 121.26, 427 169 M427 169 C428.75 191.14, 415.73 201.33, 395 201 M427 169 C426.7 191.95, 415.83 200.93, 395 201 M395 201 C310.76 202.57, 226.22 201.18, 32 201 M395 201 C302.26 203.55, 209.87 202.99, 32 201 M32 201 C9.48 201.61, -0.58 191.21, 0 169 M32 201 C10.99 201.73, -0.06 189.43, 0 169 M0 169 C1.59 125.08, -0.25 85.18, 0 32 M0 169 C1.6 121.39, 1.34 74.17, 0 32 M0 32 C0.63 9.61, 11.04 1.13, 32 0 M0 32 C1.66 9.51, 10.9 0.23, 32 0" stroke="#1e1e1e" stroke-width="2" fill="none"></path></g><g transform="translate(441.52486047304905 24) rotate(0 32.61000061035156 12.5)"><text x="0" y="0" font-family="Virgil, Segoe UI Emoji" font-size="20px" fill="#1e1e1e" text-anchor="start" style="white-space: pre;" direction="ltr" dominant-baseline="text-before-edge">regions</text></g><g transform="translate(282.52486047304905 76) rotate(0 191.45001220703125 12.5)"><text x="0" y="0" font-family="Virgil, Segoe UI Emoji" font-size="20px" fill="#1e1e1e" text-anchor="start" style="white-space: pre;" direction="ltr" dominant-baseline="text-before-edge">region_id INT  SERIAL PRIMARY KEY,</text></g><g transform="translate(286.52486047304905 127) rotate(0 128.59999084472656 12.5)"><text x="0" y="0" font-family="Virgil, Segoe UI Emoji" font-size="20px" fill="#1e1e1e" text-anchor="start" style="white-space: pre;" direction="ltr" dominant-baseline="text-before-edge">region_name VARCHAR(30)</text></g><g stroke-linecap="round" transform="translate(247.52486047304905 249) rotate(0 299.5 174)"><path d="M32 0 C208.32 1.48, 384.57 1.38, 567 0 M32 0 C141.57 -1.86, 251.46 -2.25, 567 0 M567 0 C587.79 -0.25, 597.55 8.81, 599 32 M567 0 C587.9 0.49, 598.44 8.62, 599 32 M599 32 C598.02 90.88, 600.43 146.66, 599 316 M599 32 C599.02 128.4, 599.37 225.97, 599 316 M599 316 C598.71 337, 587.9 349.16, 567 348 M599 316 C597.86 335.59, 590.37 349.91, 567 348 M567 348 C368.28 347.29, 171.02 348.11, 32 348 M567 348 C389.8 346.33, 212.9 346.24, 32 348 M32 348 C11.35 348.85, -0.94 336.67, 0 316 M32 348 C9.89 346.43, 1.25 338.8, 0 316 M0 316 C-2.55 250.78, -1.9 188.14, 0 32 M0 316 C-1.28 239.6, -1.55 164.82, 0 32 M0 32 C-0.1 9.36, 10.7 -0.85, 32 0 M0 32 C1.62 9.71, 8.84 2.08, 32 0" stroke="#1e1e1e" stroke-width="2" fill="none"></path></g><g transform="translate(520.714859099758 282) rotate(0 26.310001373291016 25)"><text x="26.310001373291016" y="0" font-family="Virgil, Segoe UI Emoji" font-size="20px" fill="#1e1e1e" text-anchor="middle" style="white-space: pre;" direction="ltr" dominant-baseline="text-before-edge">users</text><text x="26.310001373291016" y="25" font-family="Virgil, Segoe UI Emoji" font-size="20px" fill="#1e1e1e" text-anchor="middle" style="white-space: pre;" direction="ltr" dominant-baseline="text-before-edge"></text></g><g transform="translate(265.52486047304905 359) rotate(0 180.15000915527344 12.5)"><text x="180.15000915527344" y="0" font-family="Virgil, Segoe UI Emoji" font-size="20px" fill="#1e1e1e" text-anchor="middle" style="white-space: pre;" direction="ltr" dominant-baseline="text-before-edge">user_id INT SERIAL PRIMARY KEY,</text></g><g transform="translate(265.52486047304905 394) rotate(0 124.8699951171875 12.5)"><text x="124.8699951171875" y="0" font-family="Virgil, Segoe UI Emoji" font-size="20px" fill="#1e1e1e" text-anchor="middle" style="white-space: pre;" direction="ltr" dominant-baseline="text-before-edge">user_name VARCHAR(30),</text></g><g transform="translate(265.52486047304905 429) rotate(0 98.64000701904297 12.5)"><text x="98.64000701904297" y="0" font-family="Virgil, Segoe UI Emoji" font-size="20px" fill="#1e1e1e" text-anchor="middle" style="white-space: pre;" direction="ltr" dominant-baseline="text-before-edge">pref_region_id INT,</text></g><g transform="translate(265.52486047304905 464) rotate(0 283.8600769042969 12.5)"><text x="283.8600769042969" y="0" font-family="Virgil, Segoe UI Emoji" font-size="20px" fill="#1e1e1e" text-anchor="middle" style="white-space: pre;" direction="ltr" dominant-baseline="text-before-edge">FOREIGN KEY (region_id) REFERENCES regions(region_id)</text></g><g stroke-linecap="round"><g transform="translate(264.52486047304905 439) rotate(0 -30.5 -180.5)"><path d="M-0.14 -0.05 C-10.96 -18.29, -56.39 -52.48, -66.06 -108.82 C-75.72 -165.16, -70.17 -295.88, -58.14 -338.09 C-46.12 -380.3, -4.6 -358.15, 6.07 -362.05 M-1.67 -1.12 C-12.56 -19.2, -57.57 -50.71, -67.03 -107.18 C-76.5 -163.65, -70.17 -297.57, -58.46 -339.96 C-46.75 -382.34, -7.34 -357.94, 3.22 -361.5" stroke="#1e1e1e" stroke-width="2" fill="none"></path></g><g transform="translate(264.52486047304905 439) rotate(0 -30.5 -180.5)"><path d="M-21.08 -355.65 C-16.12 -356.94, -10.64 -356.64, 3.22 -361.5 M-21.08 -355.65 C-11.25 -358.05, -3.59 -360.07, 3.22 -361.5" stroke="#1e1e1e" stroke-width="2" fill="none"></path></g><g transform="translate(264.52486047304905 439) rotate(0 -30.5 -180.5)"><path d="M-19.16 -372.64 C-14.51 -370.38, -9.44 -366.53, 3.22 -361.5 M-19.16 -372.64 C-9.9 -368.67, -2.96 -364.31, 3.22 -361.5" stroke="#1e1e1e" stroke-width="2" fill="none"></path></g></g><mask></mask><g transform="translate(234.36479577578342 727) rotate(0 317.1600646972656 125)"><text x="0" y="0" font-family="Virgil, Segoe UI Emoji" font-size="20px" fill="#1e1e1e" text-anchor="start" style="white-space: pre;" direction="ltr" dominant-baseline="text-before-edge">    post_id INT SERIAL PRIMARY KEY, </text><text x="0" y="25" font-family="Virgil, Segoe UI Emoji" font-size="20px" fill="#1e1e1e" text-anchor="start" style="white-space: pre;" direction="ltr" dominant-baseline="text-before-edge">    user_id INT, ON DELETE CASCADE,</text><text x="0" y="50" font-family="Virgil, Segoe UI Emoji" font-size="20px" fill="#1e1e1e" text-anchor="start" style="white-space: pre;" direction="ltr" dominant-baseline="text-before-edge">    post_title VARCHAR(1000),</text><text x="0" y="75" font-family="Virgil, Segoe UI Emoji" font-size="20px" fill="#1e1e1e" text-anchor="start" style="white-space: pre;" direction="ltr" dominant-baseline="text-before-edge">    post_text VARCHAR(100),</text><text x="0" y="100" font-family="Virgil, Segoe UI Emoji" font-size="20px" fill="#1e1e1e" text-anchor="start" style="white-space: pre;" direction="ltr" dominant-baseline="text-before-edge">    post_date DATE,</text><text x="0" y="125" font-family="Virgil, Segoe UI Emoji" font-size="20px" fill="#1e1e1e" text-anchor="start" style="white-space: pre;" direction="ltr" dominant-baseline="text-before-edge">    location_id INT,</text><text x="0" y="150" font-family="Virgil, Segoe UI Emoji" font-size="20px" fill="#1e1e1e" text-anchor="start" style="white-space: pre;" direction="ltr" dominant-baseline="text-before-edge">    cat_id INT,</text><text x="0" y="175" font-family="Virgil, Segoe UI Emoji" font-size="20px" fill="#1e1e1e" text-anchor="start" style="white-space: pre;" direction="ltr" dominant-baseline="text-before-edge">    FOREIGN KEY (cat_id) REFERENCES catigories(cat_id),</text><text x="0" y="200" font-family="Virgil, Segoe UI Emoji" font-size="20px" fill="#1e1e1e" text-anchor="start" style="white-space: pre;" direction="ltr" dominant-baseline="text-before-edge">    FOREIGN KEY (location_id) REFERENCES regions(region_id),</text><text x="0" y="225" font-family="Virgil, Segoe UI Emoji" font-size="20px" fill="#1e1e1e" text-anchor="start" style="white-space: pre;" direction="ltr" dominant-baseline="text-before-edge">    FOREIGN KEY (user_id) REFERENCES user(user_id)</text></g><g stroke-linecap="round" transform="translate(212.52486047304905 656) rotate(0 346.5 173)"><path d="M32 0 C242.4 -0.62, 451.08 0.66, 661 0 M32 0 C201.02 -0.78, 369.3 -0.94, 661 0 M661 0 C683.93 1.1, 692.5 11.88, 693 32 M661 0 C681.76 -1.33, 693.83 10.45, 693 32 M693 32 C692.86 121.29, 693.76 209.25, 693 314 M693 32 C695.29 128.42, 694.87 226.25, 693 314 M693 314 C694.61 336.41, 680.36 347.13, 661 346 M693 314 C693.27 333.07, 681.49 344.89, 661 346 M661 346 C505.86 343.91, 350.67 344.35, 32 346 M661 346 C500.59 345.37, 340.16 345.22, 32 346 M32 346 C12.38 347.82, 0.43 333.5, 0 314 M32 346 C11.06 346.86, 1.53 335.7, 0 314 M0 314 C-1.51 215.69, 0.05 120.85, 0 32 M0 314 C1.12 257.63, 0.93 201.78, 0 32 M0 32 C-1.22 11.52, 8.74 -0.06, 32 0 M0 32 C2.29 12.29, 8.61 -0.49, 32 0" stroke="#1e1e1e" stroke-width="2" fill="none"></path></g><g transform="translate(526.524860473049 683) rotate(0 26.979999542236328 25)"><text x="0" y="0" font-family="Virgil, Segoe UI Emoji" font-size="20px" fill="#1e1e1e" text-anchor="start" style="white-space: pre;" direction="ltr" dominant-baseline="text-before-edge">posts</text><text x="0" y="25" font-family="Virgil, Segoe UI Emoji" font-size="20px" fill="#1e1e1e" text-anchor="start" style="white-space: pre;" direction="ltr" dominant-baseline="text-before-edge"></text></g><g stroke-linecap="round"><g transform="translate(269.0962890444777 766.5714285714286) rotate(0 -59.071428571428555 -202.9285714285714)"><path d="M-0.75 0.13 C-7.9 -4.42, -22.5 -7.74, -41.9 -26.66 C-61.3 -45.57, -105.75 -54.65, -117.15 -113.35 C-128.56 -172.05, -128.91 -330.26, -110.32 -378.86 C-91.73 -427.46, -22.83 -400.3, -5.61 -404.94 M1.06 -0.85 C-6.38 -5.34, -23.35 -6.57, -43.09 -25.61 C-62.84 -44.66, -106.17 -56.42, -117.4 -115.12 C-128.63 -173.82, -128.96 -329.67, -110.47 -377.83 C-91.99 -425.99, -23.95 -399.61, -6.5 -404.06" stroke="#1e1e1e" stroke-width="2" fill="none"></path></g><g transform="translate(269.0962890444777 766.5714285714286) rotate(0 -59.071428571428555 -202.9285714285714)"><path d="M-30.43 -396.82 C-21.03 -400.25, -13.59 -400.6, -6.5 -404.06 M-30.43 -396.82 C-20.12 -398.85, -11.95 -403.15, -6.5 -404.06" stroke="#1e1e1e" stroke-width="2" fill="none"></path></g><g transform="translate(269.0962890444777 766.5714285714286) rotate(0 -59.071428571428555 -202.9285714285714)"><path d="M-29.48 -413.9 C-20.36 -410.75, -13.28 -404.52, -6.5 -404.06 M-29.48 -413.9 C-19.66 -409.27, -11.85 -406.9, -6.5 -404.06" stroke="#1e1e1e" stroke-width="2" fill="none"></path></g></g><mask></mask><g stroke-linecap="round"><g transform="translate(258.0962890444777 867.8571428571429) rotate(0 -109.28571428571445 -401.4285714285709)"><path d="M0.06 0.19 C-39.83 -35.79, -210.09 -85.7, -239.35 -216.12 C-268.61 -346.55, -218.59 -684.7, -175.51 -782.37 C-132.42 -880.03, -13.47 -798.84, 19.18 -802.11 M-1.36 -0.76 C-40.87 -37.03, -207.92 -87.1, -237.05 -217.71 C-266.18 -348.33, -218.84 -686.69, -176.16 -784.45 C-133.49 -882.21, -13.55 -801.5, 19 -804.27" stroke="#1e1e1e" stroke-width="2" fill="none"></path></g><g transform="translate(258.0962890444777 867.8571428571429) rotate(0 -109.28571428571445 -401.4285714285709)"><path d="M-5.9 -802.08 C1.83 -804.05, 10.62 -803.05, 19 -804.27 M-5.9 -802.08 C2.95 -802.23, 11.97 -802.99, 19 -804.27" stroke="#1e1e1e" stroke-width="2" fill="none"></path></g><g transform="translate(258.0962890444777 867.8571428571429) rotate(0 -109.28571428571445 -401.4285714285709)"><path d="M-1.48 -818.6 C4.9 -815.65, 12.38 -809.73, 19 -804.27 M-1.48 -818.6 C5.75 -813.09, 13.27 -808.22, 19 -804.27" stroke="#1e1e1e" stroke-width="2" fill="none"></path></g></g><mask></mask><g stroke-linecap="round" transform="translate(1089.524860473049 349.28571428571536) rotate(0 204.28571428571422 129.28571428571428)"><path d="M32 0 C141.96 0.2, 254.07 1.17, 376.57 0 M32 0 C167.12 -1.34, 302.92 -1.01, 376.57 0 M376.57 0 C397.57 1.98, 407.41 10.93, 408.57 32 M376.57 0 C397.48 -0.13, 407.54 10.33, 408.57 32 M408.57 32 C407.82 106.65, 408.87 183.58, 408.57 226.57 M408.57 32 C406.56 83.29, 407.21 135.01, 408.57 226.57 M408.57 226.57 C409.03 246.7, 399.82 256.88, 376.57 258.57 M408.57 226.57 C406.37 248.79, 399.2 256.55, 376.57 258.57 M376.57 258.57 C281.86 256.53, 185.2 257.81, 32 258.57 M376.57 258.57 C303.41 256.74, 228.86 256.78, 32 258.57 M32 258.57 C12.46 258.38, -1.96 249.32, 0 226.57 M32 258.57 C9.36 260.35, -1.76 249.74, 0 226.57 M0 226.57 C0.01 185.71, -0.47 145.43, 0 32 M0 226.57 C-1.44 152.39, -2.24 79.42, 0 32 M0 32 C0.88 9.3, 11.26 -1.39, 32 0 M0 32 C2.12 12.25, 12.74 -0.34, 32 0" stroke="#1e1e1e" stroke-width="2" fill="none"></path></g><g transform="translate(1232.3820033301913 383.5714285714297) rotate(0 47.470001220703125 25)"><text x="0" y="0" font-family="Virgil, Segoe UI Emoji" font-size="20px" fill="#1e1e1e" text-anchor="start" style="white-space: pre;" direction="ltr" dominant-baseline="text-before-edge">catigories</text><text x="0" y="25" font-family="Virgil, Segoe UI Emoji" font-size="20px" fill="#1e1e1e" text-anchor="start" style="white-space: pre;" direction="ltr" dominant-baseline="text-before-edge"></text></g><g transform="translate(1079.524860473049 449.28571428571536) rotate(0 196.61000061035156 25)"><text x="0" y="0" font-family="Virgil, Segoe UI Emoji" font-size="20px" fill="#1e1e1e" text-anchor="start" style="white-space: pre;" direction="ltr" dominant-baseline="text-before-edge">    cat_id INT SERIAL PRIMARY KEY,</text><text x="0" y="25" font-family="Virgil, Segoe UI Emoji" font-size="20px" fill="#1e1e1e" text-anchor="start" style="white-space: pre;" direction="ltr" dominant-baseline="text-before-edge">    cat_name VARCHAR(30)</text></g><g stroke-linecap="round"><g transform="translate(412.3820033301916 889.2857142857154) rotate(0 352.14285714285717 -215)"><path d="M-0.48 -0.72 C95.62 -18.56, 480.6 -43.05, 577.43 -107.6 C674.26 -172.15, 559.51 -334.31, 580.49 -388.02 C601.48 -441.74, 682.64 -422.86, 703.36 -429.89 M1.47 1.52 C97.36 -16.11, 480.22 -41.04, 576.63 -106.3 C673.05 -171.57, 558.91 -336.34, 579.99 -390.08 C601.07 -443.82, 682.52 -422.09, 703.12 -428.73" stroke="#1e1e1e" stroke-width="2" fill="none"></path></g><g transform="translate(412.3820033301916 889.2857142857154) rotate(0 352.14285714285717 -215)"><path d="M679.94 -419.36 C687.41 -422.27, 696.48 -425.42, 703.12 -428.73 M679.94 -419.36 C688.44 -422.8, 696.64 -425.59, 703.12 -428.73" stroke="#1e1e1e" stroke-width="2" fill="none"></path></g><g transform="translate(412.3820033301916 889.2857142857154) rotate(0 352.14285714285717 -215)"><path d="M679.34 -436.45 C686.95 -433, 696.24 -429.79, 703.12 -428.73 M679.34 -436.45 C687.91 -433.98, 696.32 -430.87, 703.12 -428.73" stroke="#1e1e1e" stroke-width="2" fill="none"></path></g></g><mask></mask></svg>