<svg version="1.1" xmlns="http://www.w3.org/2000/svg" viewBox="0 0 2150.001167956598 1134.2857142857142" width="4300.002335913196" height="2268.5714285714284">
  <!-- svg-source:excalidraw -->
  
  <defs>
    <style class="style-fonts">
      @font-face {
        font-family: "Virgil";
        src: url("https://excalidraw.com/Virgil.woff2");
      }
      @font-face {
        font-family: "Cascadia";
        src: url("https://excalidraw.com/Cascadia.woff2");
      }
      @font-face {
        font-family: "Assistant";
        src: url("https://excalidraw.com/Assistant-Regular.woff2");
      }
    </style>
    
  </defs>
  <rect x="0" y="0" width="2150.001167956598" height="1134.2857142857142" fill="#ffffff"></rect><g transform="translate(848.5725965280263 201.85714285714272) rotate(0 126.07999420166016 12.5)"><text x="0" y="0" font-family="Virgil, Segoe UI Emoji" font-size="20px" fill="#1e1e1e" text-anchor="start" style="white-space: pre;" direction="ltr" dominant-baseline="text-before-edge">id SERIAL PRIMARY KEY,</text></g><g transform="translate(848.5725965280263 236.85714285714272) rotate(0 155.60003662109375 12.5)"><text x="0" y="0" font-family="Virgil, Segoe UI Emoji" font-size="20px" fill="#e03131" text-anchor="start" style="white-space: pre;" direction="ltr" dominant-baseline="text-before-edge">home_team_id INT NOT NULL,</text></g><g transform="translate(848.5725965280263 271.8571428571427) rotate(0 157.44004821777344 12.5)"><text x="0" y="0" font-family="Virgil, Segoe UI Emoji" font-size="20px" fill="#e03131" text-anchor="start" style="white-space: pre;" direction="ltr" dominant-baseline="text-before-edge">away_team_id INT NOT NULL,</text></g><g transform="translate(848.5725965280263 306.8571428571427) rotate(0 173.00001525878906 12.5)"><text x="0" y="0" font-family="Virgil, Segoe UI Emoji" font-size="20px" fill="#2f9e44" text-anchor="start" style="white-space: pre;" direction="ltr" dominant-baseline="text-before-edge">home_team_goals INT NOT NULL,</text></g><g transform="translate(848.5725965280263 341.8571428571427) rotate(0 174.84002685546875 12.5)"><text x="0" y="0" font-family="Virgil, Segoe UI Emoji" font-size="20px" fill="#2f9e44" text-anchor="start" style="white-space: pre;" direction="ltr" dominant-baseline="text-before-edge">away_team_goals INT NOT NULL,</text></g><g transform="translate(848.5725965280263 376.8571428571427) rotate(0 117.49000549316406 12.5)"><text x="0" y="0" font-family="Virgil, Segoe UI Emoji" font-size="20px" fill="#1e1e1e" text-anchor="start" style="white-space: pre;" direction="ltr" dominant-baseline="text-before-edge">date DATE NOT NULL,</text></g><g transform="translate(848.5725965280263 411.8571428571427) rotate(0 134.15000915527344 12.5)"><text x="0" y="0" font-family="Virgil, Segoe UI Emoji" font-size="20px" fill="#1971c2" text-anchor="start" style="white-space: pre;" direction="ltr" dominant-baseline="text-before-edge">season_id INT NOT NULL,</text></g><g transform="translate(848.5725965280263 446.8571428571427) rotate(0 257.6200256347656 12.5)"><text x="0" y="0" font-family="Virgil, Segoe UI Emoji" font-size="20px" fill="#1e1e1e" text-anchor="start" style="white-space: pre;" direction="ltr" dominant-baseline="text-before-edge">FOREIGN KEY (season_id) REFERENCES season(id),</text></g><g transform="translate(848.5725965280263 481.8571428571427) rotate(0 269.9800720214844 12.5)"><text x="0" y="0" font-family="Virgil, Segoe UI Emoji" font-size="20px" fill="#1e1e1e" text-anchor="start" style="white-space: pre;" direction="ltr" dominant-baseline="text-before-edge">FOREIGN KEY (home_team_id) REFERENCES team(id),</text></g><g transform="translate(848.5725965280263 516.8571428571427) rotate(0 269.25006103515625 12.5)"><text x="0" y="0" font-family="Virgil, Segoe UI Emoji" font-size="20px" fill="#1e1e1e" text-anchor="start" style="white-space: pre;" direction="ltr" dominant-baseline="text-before-edge">FOREIGN KEY (away_team_id) REFERENCES team(id)</text></g><g transform="translate(199.85831081374056 619.7142857142854) rotate(0 126.07999420166016 12.5)"><text x="0" y="0" font-family="Virgil, Segoe UI Emoji" font-size="20px" fill="#1e1e1e" text-anchor="start" style="white-space: pre;" direction="ltr" dominant-baseline="text-before-edge">id SERIAL PRIMARY KEY,</text></g><g transform="translate(199.85831081374056 654.7142857142854) rotate(0 155.8100128173828 12.5)"><text x="0" y="0" font-family="Virgil, Segoe UI Emoji" font-size="20px" fill="#1e1e1e" text-anchor="start" style="white-space: pre;" direction="ltr" dominant-baseline="text-before-edge">name VARCHAR(100) NOT NULL,</text></g><g transform="translate(199.85831081374056 689.7142857142854) rotate(0 125.05999755859375 12.5)"><text x="0" y="0" font-family="Virgil, Segoe UI Emoji" font-size="20px" fill="#1e1e1e" text-anchor="start" style="white-space: pre;" direction="ltr" dominant-baseline="text-before-edge">team_id INT NOT NULL,</text></g><g transform="translate(199.85831081374056 724.7142857142854) rotate(0 161.9300079345703 12.5)"><text x="0" y="0" font-family="Virgil, Segoe UI Emoji" font-size="20px" fill="#1e1e1e" text-anchor="start" style="white-space: pre;" direction="ltr" dominant-baseline="text-before-edge">position VARCHAR(10) NOT NULL,</text></g><g transform="translate(199.85831081374056 759.7142857142854) rotate(0 110.08000183105469 12.5)"><text x="0" y="0" font-family="Virgil, Segoe UI Emoji" font-size="20px" fill="#1e1e1e" text-anchor="start" style="white-space: pre;" direction="ltr" dominant-baseline="text-before-edge">goals INT NOT NULL,</text></g><g transform="translate(199.85831081374056 794.7142857142854) rotate(0 236.8700408935547 12.5)"><text x="0" y="0" font-family="Virgil, Segoe UI Emoji" font-size="20px" fill="#1e1e1e" text-anchor="start" style="white-space: pre;" direction="ltr" dominant-baseline="text-before-edge">FOREIGN KEY (team_id) REFERENCES team(id)</text></g><g transform="translate(218.85831081374056 315.142857142857) rotate(0 126.07999420166016 12.5)"><text x="0" y="0" font-family="Virgil, Segoe UI Emoji" font-size="20px" fill="#1e1e1e" text-anchor="start" style="white-space: pre;" direction="ltr" dominant-baseline="text-before-edge">id SERIAL PRIMARY KEY,</text></g><g transform="translate(218.85831081374056 350.142857142857) rotate(0 155.8100128173828 12.5)"><text x="0" y="0" font-family="Virgil, Segoe UI Emoji" font-size="20px" fill="#1e1e1e" text-anchor="start" style="white-space: pre;" direction="ltr" dominant-baseline="text-before-edge">name VARCHAR(100) NOT NULL,</text></g><g transform="translate(218.85831081374056 385.142857142857) rotate(0 131.87001037597656 12.5)"><text x="0" y="0" font-family="Virgil, Segoe UI Emoji" font-size="20px" fill="#1e1e1e" text-anchor="start" style="white-space: pre;" direction="ltr" dominant-baseline="text-before-edge">league_id INT NOT NULL,</text></g><g transform="translate(218.85831081374056 420.142857142857) rotate(0 144.7300262451172 12.5)"><text x="0" y="0" font-family="Virgil, Segoe UI Emoji" font-size="20px" fill="#1e1e1e" text-anchor="start" style="white-space: pre;" direction="ltr" dominant-baseline="text-before-edge">code VARCHAR(3) NOT NULL,</text></g><g transform="translate(218.85831081374056 455.142857142857) rotate(0 250.4900360107422 12.5)"><text x="0" y="0" font-family="Virgil, Segoe UI Emoji" font-size="20px" fill="#1e1e1e" text-anchor="start" style="white-space: pre;" direction="ltr" dominant-baseline="text-before-edge">FOREIGN KEY (league_id) REFERENCES league(id)</text></g><g transform="translate(210.71545367088345 92.99999999999989) rotate(0 126.07999420166016 12.5)"><text x="0" y="0" font-family="Virgil, Segoe UI Emoji" font-size="20px" fill="#1e1e1e" text-anchor="start" style="white-space: pre;" direction="ltr" dominant-baseline="text-before-edge">id SERIAL PRIMARY KEY,</text></g><g transform="translate(210.71545367088345 127.99999999999989) rotate(0 155.8100128173828 12.5)"><text x="0" y="0" font-family="Virgil, Segoe UI Emoji" font-size="20px" fill="#1e1e1e" text-anchor="start" style="white-space: pre;" direction="ltr" dominant-baseline="text-before-edge">name VARCHAR(100) NOT NULL,</text></g><g transform="translate(210.71545367088345 162.9999999999999) rotate(0 136.49000549316406 12.5)"><text x="0" y="0" font-family="Virgil, Segoe UI Emoji" font-size="20px" fill="#1e1e1e" text-anchor="start" style="white-space: pre;" direction="ltr" dominant-baseline="text-before-edge">country_id INT NOT NULL,</text></g><g transform="translate(210.71545367088345 197.9999999999999) rotate(0 147.51002502441406 12.5)"><text x="0" y="0" font-family="Virgil, Segoe UI Emoji" font-size="20px" fill="#1e1e1e" text-anchor="start" style="white-space: pre;" direction="ltr" dominant-baseline="text-before-edge">code VARCHAR(10) NOT NULL,</text></g><g transform="translate(313.35688193713634 44.28571428571425) rotate(0 50.93000030517578 12.5)"><text x="0" y="0" font-family="Virgil, Segoe UI Emoji" font-size="20px" fill="#1e1e1e" text-anchor="start" style="white-space: pre;" direction="ltr" dominant-baseline="text-before-edge">    leauge</text></g><g transform="translate(438.02402426022155 278.57142857142856) rotate(0 24.1200008392334 25)"><text x="0" y="0" font-family="Virgil, Segoe UI Emoji" font-size="20px" fill="#1e1e1e" text-anchor="start" style="white-space: pre;" direction="ltr" dominant-baseline="text-before-edge">team</text><text x="0" y="25" font-family="Virgil, Segoe UI Emoji" font-size="20px" fill="#1e1e1e" text-anchor="start" style="white-space: pre;" direction="ltr" dominant-baseline="text-before-edge"></text></g><g transform="translate(418.4540264727459 572.8571428571428) rotate(0 28.689998626708984 25)"><text x="0" y="0" font-family="Virgil, Segoe UI Emoji" font-size="20px" fill="#1e1e1e" text-anchor="start" style="white-space: pre;" direction="ltr" dominant-baseline="text-before-edge">player</text><text x="0" y="25" font-family="Virgil, Segoe UI Emoji" font-size="20px" fill="#1e1e1e" text-anchor="start" style="white-space: pre;" direction="ltr" dominant-baseline="text-before-edge"></text></g><g transform="translate(1091.3911673462462 155.71428571428567) rotate(0 28.610000610351562 25)"><text x="0" y="0" font-family="Virgil, Segoe UI Emoji" font-size="20px" fill="#1e1e1e" text-anchor="start" style="white-space: pre;" direction="ltr" dominant-baseline="text-before-edge">match</text><text x="0" y="25" font-family="Virgil, Segoe UI Emoji" font-size="20px" fill="#1e1e1e" text-anchor="start" style="white-space: pre;" direction="ltr" dominant-baseline="text-before-edge"></text></g><g stroke-linecap="round" transform="translate(190.00116795659784 34.28571428571422) rotate(0 174.28571428571425 109.28571428571428)"><path d="M32 0 C92.05 -0.21, 150.29 0.52, 316.57 0 M32 0 C143.91 -0.97, 257.1 -0.63, 316.57 0 M316.57 0 C337.66 0.87, 349.62 11.07, 348.57 32 M316.57 0 C337.69 -0.4, 347.84 10.55, 348.57 32 M348.57 32 C346.89 82.39, 347.95 134.15, 348.57 186.57 M348.57 32 C347.77 90.85, 346.58 147.53, 348.57 186.57 M348.57 186.57 C347.96 208.48, 339.19 217.96, 316.57 218.57 M348.57 186.57 C348.55 205.68, 338.04 217.14, 316.57 218.57 M316.57 218.57 C256.37 216.68, 196.63 218.11, 32 218.57 M316.57 218.57 C236.57 217.76, 156.25 218.02, 32 218.57 M32 218.57 C9.35 219.83, -1.3 209.76, 0 186.57 M32 218.57 C10.13 216.87, 1.39 209.25, 0 186.57 M0 186.57 C0.51 143.4, -1 99.32, 0 32 M0 186.57 C0.1 125.19, -0.69 65.06, 0 32 M0 32 C0.37 11.79, 9.68 1.96, 32 0 M0 32 C-0.15 12.28, 8.8 -2.2, 32 0" stroke="#1e1e1e" stroke-width="2" fill="none"></path></g><g stroke-linecap="round" transform="translate(182.85831081374067 275.71428571428567) rotate(0 279.2857142857143 128.57142857142856)"><path d="M32 0 C150.04 -2, 267.6 -1.56, 526.57 0 M32 0 C132.37 0.58, 232.65 0.57, 526.57 0 M526.57 0 C548.06 -1.22, 559.59 10.27, 558.57 32 M526.57 0 C547.61 -0.19, 558.41 12.73, 558.57 32 M558.57 32 C556.83 91.6, 557.09 149.23, 558.57 225.14 M558.57 32 C556.35 70.19, 557.39 108.68, 558.57 225.14 M558.57 225.14 C560.08 247.65, 545.95 257.04, 526.57 257.14 M558.57 225.14 C559.16 245.55, 545.89 259.15, 526.57 257.14 M526.57 257.14 C329.7 256.73, 133.38 256.67, 32 257.14 M526.57 257.14 C353.11 258.29, 180.57 258.42, 32 257.14 M32 257.14 C9.86 255.9, 0.49 248.05, 0 225.14 M32 257.14 C12.95 257.91, 1.01 244.19, 0 225.14 M0 225.14 C1.79 166.5, 1.04 111.16, 0 32 M0 225.14 C2.04 161.35, 1.71 98.66, 0 32 M0 32 C1.8 10.31, 11.12 0.17, 32 0 M0 32 C0.49 12.42, 9.35 2.18, 32 0" stroke="#1e1e1e" stroke-width="2" fill="none"></path></g><g stroke-linecap="round" transform="translate(164.28688224231212 567.142857142857) rotate(0 282.8571428571428 139.28571428571428)"><path d="M32 0 C198.3 1.78, 364.81 1.31, 533.71 0 M32 0 C163.38 0.39, 295.08 0.32, 533.71 0 M533.71 0 C555.09 -1.16, 567.37 12.22, 565.71 32 M533.71 0 C554.23 -1.37, 565.79 10.62, 565.71 32 M565.71 32 C565.24 86.96, 565.75 139.07, 565.71 246.57 M565.71 32 C564.52 105.02, 564.03 177.64, 565.71 246.57 M565.71 246.57 C567.57 265.95, 555.71 278.31, 533.71 278.57 M565.71 246.57 C566.2 269.23, 553.12 278.27, 533.71 278.57 M533.71 278.57 C340.95 279.77, 148.64 278.58, 32 278.57 M533.71 278.57 C394.05 279.12, 255.21 279.27, 32 278.57 M32 278.57 C12.32 278.06, -1.96 268.58, 0 246.57 M32 278.57 C12.1 276.91, 0.69 269.76, 0 246.57 M0 246.57 C-1.8 185.81, -0.58 125.89, 0 32 M0 246.57 C-0.95 177.26, -2.35 107.01, 0 32 M0 32 C-0.53 12.37, 10.22 0.11, 32 0 M0 32 C2.25 8.66, 10.88 0.7, 32 0" stroke="#1e1e1e" stroke-width="2" fill="none"></path></g><g stroke-linecap="round" transform="translate(827.144025099455 138.57142857142856) rotate(0 292.8571428571428 229.28571428571422)"><path d="M32 0 C223.7 1.86, 414.02 0.86, 553.71 0 M32 0 C196.71 -0.07, 360.82 -0.54, 553.71 0 M553.71 0 C574.31 -0.55, 585.46 11.45, 585.71 32 M553.71 0 C574.55 -1.43, 583.82 9.31, 585.71 32 M585.71 32 C587.39 150.53, 587.15 268.12, 585.71 426.57 M585.71 32 C585.4 178.41, 585.28 325.71, 585.71 426.57 M585.71 426.57 C585.18 446.56, 575.28 459.71, 553.71 458.57 M585.71 426.57 C587.85 446.05, 574.42 460.32, 553.71 458.57 M553.71 458.57 C381.45 457.93, 210.6 457.77, 32 458.57 M553.71 458.57 C396.05 456.68, 238.34 456.41, 32 458.57 M32 458.57 C11.46 456.66, 1.67 448.54, 0 426.57 M32 458.57 C10.3 457.5, 1.71 446.84, 0 426.57 M0 426.57 C-0.58 301.06, -0.68 175.19, 0 32 M0 426.57 C1.16 297.28, 0.4 167.57, 0 32 M0 32 C-1.16 10.67, 10.01 -0.2, 32 0 M0 32 C-1.54 10.5, 11.95 -0.67, 32 0" stroke="#1e1e1e" stroke-width="2" fill="none"></path></g><g transform="translate(1548.5725965280262 77.14285714285711) rotate(0 126.07999420166016 12.5)"><text x="0" y="0" font-family="Virgil, Segoe UI Emoji" font-size="20px" fill="#1e1e1e" text-anchor="start" style="white-space: pre;" direction="ltr" dominant-baseline="text-before-edge">id SERIAL PRIMARY KEY,</text></g><g transform="translate(1548.5725965280262 112.14285714285711) rotate(0 153.24000549316406 12.5)"><text x="0" y="0" font-family="Virgil, Segoe UI Emoji" font-size="20px" fill="#1e1e1e" text-anchor="start" style="white-space: pre;" direction="ltr" dominant-baseline="text-before-edge">name VARCHAR(100) NOT NULL</text></g><g transform="translate(1548.5725965280262 147.1428571428571) rotate(0 69.68000030517578 12.5)"><text x="0" y="0" font-family="Virgil, Segoe UI Emoji" font-size="20px" fill="#1e1e1e" text-anchor="start" style="white-space: pre;" direction="ltr" dominant-baseline="text-before-edge">match_id INT</text></g><g transform="translate(1548.5725965280262 182.1428571428571) rotate(0 245.8500518798828 12.5)"><text x="0" y="0" font-family="Virgil, Segoe UI Emoji" font-size="20px" fill="#1e1e1e" text-anchor="start" style="white-space: pre;" direction="ltr" dominant-baseline="text-before-edge">FOREIGN KEY (match_id) REFERENCES match(id)</text></g><g transform="translate(1548.5725965280262 40) rotate(0 34.090003967285156 12.5)"><text x="0" y="0" font-family="Virgil, Segoe UI Emoji" font-size="20px" fill="#1e1e1e" text-anchor="start" style="white-space: pre;" direction="ltr" dominant-baseline="text-before-edge">refery </text></g><g transform="translate(1548.5725965280262 345.71428571428567) rotate(0 126.07999420166016 12.5)"><text x="0" y="0" font-family="Virgil, Segoe UI Emoji" font-size="20px" fill="#1e1e1e" text-anchor="start" style="white-space: pre;" direction="ltr" dominant-baseline="text-before-edge">id SERIAL PRIMARY KEY,</text></g><g transform="translate(1548.5725965280262 380.71428571428567) rotate(0 129.6300048828125 12.5)"><text x="0" y="0" font-family="Virgil, Segoe UI Emoji" font-size="20px" fill="#1e1e1e" text-anchor="start" style="white-space: pre;" direction="ltr" dominant-baseline="text-before-edge">player_id INT NOT NULL,</text></g><g transform="translate(1548.5725965280262 415.71428571428567) rotate(0 129.5500030517578 12.5)"><text x="0" y="0" font-family="Virgil, Segoe UI Emoji" font-size="20px" fill="#1e1e1e" text-anchor="start" style="white-space: pre;" direction="ltr" dominant-baseline="text-before-edge">match_id INT NOT NULL,</text></g><g transform="translate(1548.5725965280262 450.71428571428567) rotate(0 248.58004760742188 12.5)"><text x="0" y="0" font-family="Virgil, Segoe UI Emoji" font-size="20px" fill="#1e1e1e" text-anchor="start" style="white-space: pre;" direction="ltr" dominant-baseline="text-before-edge">FOREIGN KEY (player_id) REFERENCES player(id),</text></g><g transform="translate(1548.5725965280262 485.71428571428567) rotate(0 245.8500518798828 12.5)"><text x="0" y="0" font-family="Virgil, Segoe UI Emoji" font-size="20px" fill="#1e1e1e" text-anchor="start" style="white-space: pre;" direction="ltr" dominant-baseline="text-before-edge">FOREIGN KEY (match_id) REFERENCES match(id)</text></g><g transform="translate(1548.5725965280262 318.57142857142856) rotate(0 25.28000259399414 25)"><text x="0" y="0" font-family="Virgil, Segoe UI Emoji" font-size="20px" fill="#1e1e1e" text-anchor="start" style="white-space: pre;" direction="ltr" dominant-baseline="text-before-edge">goals</text><text x="0" y="25" font-family="Virgil, Segoe UI Emoji" font-size="20px" fill="#1e1e1e" text-anchor="start" style="white-space: pre;" direction="ltr" dominant-baseline="text-before-edge"></text></g><g transform="translate(1548.5725965280262 635.7142857142857) rotate(0 126.07999420166016 12.5)"><text x="0" y="0" font-family="Virgil, Segoe UI Emoji" font-size="20px" fill="#1e1e1e" text-anchor="start" style="white-space: pre;" direction="ltr" dominant-baseline="text-before-edge">id SERIAL PRIMARY KEY,</text></g><g transform="translate(1548.5725965280262 670.7142857142857) rotate(0 129.6300048828125 12.5)"><text x="0" y="0" font-family="Virgil, Segoe UI Emoji" font-size="20px" fill="#1e1e1e" text-anchor="start" style="white-space: pre;" direction="ltr" dominant-baseline="text-before-edge">player_id INT NOT NULL,</text></g><g transform="translate(1548.5725965280262 705.7142857142857) rotate(0 129.5500030517578 12.5)"><text x="0" y="0" font-family="Virgil, Segoe UI Emoji" font-size="20px" fill="#1e1e1e" text-anchor="start" style="white-space: pre;" direction="ltr" dominant-baseline="text-before-edge">match_id INT NOT NULL,</text></g><g transform="translate(1548.5725965280262 740.7142857142857) rotate(0 248.58004760742188 12.5)"><text x="0" y="0" font-family="Virgil, Segoe UI Emoji" font-size="20px" fill="#1e1e1e" text-anchor="start" style="white-space: pre;" direction="ltr" dominant-baseline="text-before-edge">FOREIGN KEY (player_id) REFERENCES player(id),</text></g><g transform="translate(1548.5725965280262 775.7142857142857) rotate(0 245.8500518798828 12.5)"><text x="0" y="0" font-family="Virgil, Segoe UI Emoji" font-size="20px" fill="#1e1e1e" text-anchor="start" style="white-space: pre;" direction="ltr" dominant-baseline="text-before-edge">FOREIGN KEY (match_id) REFERENCES match(id)</text></g><g transform="translate(1548.5725965280262 597.1428571428571) rotate(0 31 25)"><text x="0" y="0" font-family="Virgil, Segoe UI Emoji" font-size="20px" fill="#1e1e1e" text-anchor="start" style="white-space: pre;" direction="ltr" dominant-baseline="text-before-edge">lineups</text><text x="0" y="25" font-family="Virgil, Segoe UI Emoji" font-size="20px" fill="#1e1e1e" text-anchor="start" style="white-space: pre;" direction="ltr" dominant-baseline="text-before-edge"></text></g><g transform="translate(317.1440250994549 955.7142857142856) rotate(0 126.07999420166016 12.5)"><text x="0" y="0" font-family="Virgil, Segoe UI Emoji" font-size="20px" fill="#1e1e1e" text-anchor="start" style="white-space: pre;" direction="ltr" dominant-baseline="text-before-edge">id SERIAL PRIMARY KEY,</text></g><g transform="translate(317.1440250994549 990.7142857142856) rotate(0 155.8100128173828 12.5)"><text x="0" y="0" font-family="Virgil, Segoe UI Emoji" font-size="20px" fill="#1e1e1e" text-anchor="start" style="white-space: pre;" direction="ltr" dominant-baseline="text-before-edge">name VARCHAR(100) NOT NULL,</text></g><g transform="translate(317.1440250994549 1025.7142857142856) rotate(0 153.4500274658203 12.5)"><text x="0" y="0" font-family="Virgil, Segoe UI Emoji" font-size="20px" fill="#1e1e1e" text-anchor="start" style="white-space: pre;" direction="ltr" dominant-baseline="text-before-edge">start_date DATE NOT NULL,</text></g><g transform="translate(317.1440250994549 1060.7142857142856) rotate(0 139.010009765625 12.499999999999943)"><text x="0" y="0" font-family="Virgil, Segoe UI Emoji" font-size="20px" fill="#1e1e1e" text-anchor="start" style="white-space: pre;" direction="ltr" dominant-baseline="text-before-edge">end_date DATE NOT NULL</text></g><g transform="translate(918.5725965280263 774.2857142857142) rotate(0 126.07999420166016 12.5)"><text x="0" y="0" font-family="Virgil, Segoe UI Emoji" font-size="20px" fill="#1e1e1e" text-anchor="start" style="white-space: pre;" direction="ltr" dominant-baseline="text-before-edge">id SERIAL PRIMARY KEY,</text></g><g transform="translate(918.5725965280263 809.2857142857142) rotate(0 129.5500030517578 12.5)"><text x="0" y="0" font-family="Virgil, Segoe UI Emoji" font-size="20px" fill="#1e1e1e" text-anchor="start" style="white-space: pre;" direction="ltr" dominant-baseline="text-before-edge">match_id INT NOT NULL,</text></g><g transform="translate(918.5725965280263 844.2857142857142) rotate(0 125.05999755859375 12.5)"><text x="0" y="0" font-family="Virgil, Segoe UI Emoji" font-size="20px" fill="#1e1e1e" text-anchor="start" style="white-space: pre;" direction="ltr" dominant-baseline="text-before-edge">team_id INT NOT NULL,</text></g><g transform="translate(918.5725965280263 879.2857142857142) rotate(0 154.95001220703125 12.5)"><text x="0" y="0" font-family="Virgil, Segoe UI Emoji" font-size="20px" fill="#1e1e1e" text-anchor="start" style="white-space: pre;" direction="ltr" dominant-baseline="text-before-edge">result VARCHAR(10) NOT NULL,</text></g><g transform="translate(918.5725965280263 914.2857142857141) rotate(0 239.44004821777344 12.5)"><text x="0" y="0" font-family="Virgil, Segoe UI Emoji" font-size="20px" fill="#1e1e1e" text-anchor="start" style="white-space: pre;" direction="ltr" dominant-baseline="text-before-edge">FOREIGN KEY (team_id) REFERENCES team(id),</text></g><g transform="translate(918.5725965280263 949.2857142857141) rotate(0 245.8500518798828 12.5)"><text x="0" y="0" font-family="Virgil, Segoe UI Emoji" font-size="20px" fill="#1e1e1e" text-anchor="start" style="white-space: pre;" direction="ltr" dominant-baseline="text-before-edge">FOREIGN KEY (match_id) REFERENCES match(id)</text></g><g transform="translate(434.2868822423121 915.7142857142856) rotate(0 33.209999084472656 12.5)"><text x="0" y="0" font-family="Virgil, Segoe UI Emoji" font-size="20px" fill="#1e1e1e" text-anchor="start" style="white-space: pre;" direction="ltr" dominant-baseline="text-before-edge">season</text></g><g transform="translate(1050.0011679565978 734.2857142857142) rotate(0 34.59000015258789 25)"><text x="0" y="0" font-family="Virgil, Segoe UI Emoji" font-size="20px" fill="#1e1e1e" text-anchor="start" style="white-space: pre;" direction="ltr" dominant-baseline="text-before-edge">results</text><text x="0" y="25" font-family="Virgil, Segoe UI Emoji" font-size="20px" fill="#1e1e1e" text-anchor="start" style="white-space: pre;" direction="ltr" dominant-baseline="text-before-edge"></text></g><g stroke-linecap="round" transform="translate(300.0011679565978 901.4285714285713) rotate(0 179.28571428571428 111.4285714285715)"><path d="M32 0 C120.21 2.98, 208.65 2.18, 326.57 0 M32 0 C120.86 -1.16, 209.45 -1.13, 326.57 0 M326.57 0 C345.96 1.42, 358.98 10.44, 358.57 32 M326.57 0 C347.02 -1.8, 358.62 9.91, 358.57 32 M358.57 32 C359.47 91.33, 359.85 147.89, 358.57 190.86 M358.57 32 C358.63 65.24, 358.26 96.1, 358.57 190.86 M358.57 190.86 C358.61 214.09, 346.14 224.1, 326.57 222.86 M358.57 190.86 C358.65 212.5, 347.84 224.39, 326.57 222.86 M326.57 222.86 C237.84 225.34, 146.67 223.08, 32 222.86 M326.57 222.86 C210.78 224.18, 95.08 223.98, 32 222.86 M32 222.86 C11.17 222.38, -0.51 213.75, 0 190.86 M32 222.86 C10.64 224.82, -2.02 213.12, 0 190.86 M0 190.86 C0.02 150.05, -1.94 107.9, 0 32 M0 190.86 C-0.56 133.29, -2.01 77.24, 0 32 M0 32 C-1.93 12.28, 8.93 1.14, 32 0 M0 32 C1 11.77, 9.45 0.53, 32 0" stroke="#1e1e1e" stroke-width="2" fill="none"></path></g><g stroke-linecap="round" transform="translate(875.7154536708834 717.1428571428571) rotate(0 282.8571428571429 144.28571428571428)"><path d="M32 0 C178.43 1.98, 325.95 2.45, 533.71 0 M32 0 C223.23 -1.6, 414.56 -1.66, 533.71 0 M533.71 0 C553.8 1.83, 564.02 11.93, 565.71 32 M533.71 0 C553.47 2.24, 565.34 12.78, 565.71 32 M565.71 32 C565.33 110.04, 566.15 186.78, 565.71 256.57 M565.71 32 C564.2 83.24, 564.89 134.67, 565.71 256.57 M565.71 256.57 C565.59 279.47, 553.65 289.61, 533.71 288.57 M565.71 256.57 C564.36 279.88, 554.55 287.22, 533.71 288.57 M533.71 288.57 C376.25 290.19, 220.02 289.81, 32 288.57 M533.71 288.57 C334.91 287.83, 137.1 288.05, 32 288.57 M32 288.57 C9.35 287.5, 0.96 279.32, 0 256.57 M32 288.57 C8.62 287.52, -0.53 278.41, 0 256.57 M0 256.57 C-1.68 175.05, -2.61 94.81, 0 32 M0 256.57 C0.59 167.68, 1.29 79.07, 0 32 M0 32 C-1.01 9.59, 12.03 -1.18, 32 0 M0 32 C-0.79 11.3, 11.69 -0.02, 32 0" stroke="#1e1e1e" stroke-width="2" fill="none"></path></g><g stroke-linecap="round" transform="translate(1548.5725965280262 572.8571428571428) rotate(0 295.71428571428567 132.1428571428571)"><path d="M32 0 C169.92 0.93, 309.04 1.18, 559.43 0 M32 0 C171.34 -0.78, 311.04 -1.09, 559.43 0 M559.43 0 C581.62 -0.89, 591.69 11.18, 591.43 32 M559.43 0 C582.58 0.03, 593.31 8.44, 591.43 32 M591.43 32 C588.93 88.81, 591.5 147.35, 591.43 232.29 M591.43 32 C592.02 81.39, 592.06 130.06, 591.43 232.29 M591.43 232.29 C591.92 252.25, 579.37 263.25, 559.43 264.29 M591.43 232.29 C590.84 252.41, 582.47 263.83, 559.43 264.29 M559.43 264.29 C411.93 266.49, 265.17 266, 32 264.29 M559.43 264.29 C434.97 265.64, 309.9 265.93, 32 264.29 M32 264.29 C9.13 262.46, -1 255.05, 0 232.29 M32 264.29 C9 263.31, -1.02 253.5, 0 232.29 M0 232.29 C1.46 177.6, 1.58 121.81, 0 32 M0 232.29 C-0.69 190.97, -2.07 147.81, 0 32 M0 32 C0.6 11.46, 11.12 0.61, 32 0 M0 32 C-0.32 12.19, 10.74 -0.05, 32 0" stroke="#1e1e1e" stroke-width="2" fill="none"></path></g><g stroke-linecap="round" transform="translate(1548.5725965280262 304.2857142857142) rotate(0 284.285714285714 109.28571428571428)"><path d="M32 0 C199.65 -0.55, 368.3 -1.72, 536.57 0 M32 0 C212.22 -0.58, 393.46 -0.18, 536.57 0 M536.57 0 C555.95 -1.8, 567.66 11.21, 568.57 32 M536.57 0 C557.52 -0.65, 567.7 9.68, 568.57 32 M568.57 32 C571.1 69.69, 567.54 103.14, 568.57 186.57 M568.57 32 C567.13 89.64, 567.03 146.94, 568.57 186.57 M568.57 186.57 C568.93 206.52, 556.78 217.74, 536.57 218.57 M568.57 186.57 C568.53 206.86, 559.82 216.55, 536.57 218.57 M536.57 218.57 C344.61 219.41, 152.4 219.78, 32 218.57 M536.57 218.57 C361.39 219.22, 186.44 219.54, 32 218.57 M32 218.57 C8.9 219.1, 1.31 206.27, 0 186.57 M32 218.57 C11.18 219.34, -1.97 210.04, 0 186.57 M0 186.57 C-0.49 131.11, 0.69 72.29, 0 32 M0 186.57 C-1.74 138.38, -1.51 90.34, 0 32 M0 32 C-0.06 10.68, 11.56 -1.12, 32 0 M0 32 C-1.71 10.57, 10.82 1.15, 32 0" stroke="#1e1e1e" stroke-width="2" fill="none"></path></g><g stroke-linecap="round" transform="translate(1548.5725965280262 10) rotate(0 295.7142857142859 119.28571428571428)"><path d="M32 0 C167.05 -1.3, 302.92 -1.88, 559.43 0 M32 0 C231.79 -0.65, 430.9 0.03, 559.43 0 M559.43 0 C578.78 1.53, 592.48 8.74, 591.43 32 M559.43 0 C582.2 -0.36, 590.09 9.48, 591.43 32 M591.43 32 C589.76 72.68, 589.13 115.25, 591.43 206.57 M591.43 32 C589.63 79.19, 590.87 127.32, 591.43 206.57 M591.43 206.57 C591.6 228.96, 580.34 240.31, 559.43 238.57 M591.43 206.57 C591.27 228.68, 578.77 236.98, 559.43 238.57 M559.43 238.57 C376.64 240.85, 194.02 240.86, 32 238.57 M559.43 238.57 C430.85 239.62, 302.06 239.07, 32 238.57 M32 238.57 C11.75 240.43, -0.58 228.53, 0 206.57 M32 238.57 C12.53 240.07, 2.25 229.9, 0 206.57 M0 206.57 C3.14 136.86, 1.74 70.82, 0 32 M0 206.57 C-1.02 155.2, -1.35 104.11, 0 32 M0 32 C1.93 10.56, 9.61 -0.57, 32 0 M0 32 C0.82 9.87, 11.42 1.62, 32 0" stroke="#1e1e1e" stroke-width="2" fill="none"></path></g><g stroke-linecap="round"><g transform="translate(842.8583108137406 268.5714285714285) rotate(0 -182.85714285714283 29.285714285714278)"><path d="M1.08 0.52 C0.66 0.81, 59.74 -8.72, -1.48 0.77 C-62.69 10.26, -305.38 47.9, -366.2 57.47 M0.19 -0.25 C-0.48 -0.21, 58.78 -10.69, -2.45 -0.94 C-63.68 8.8, -306.54 48.2, -367.22 58.2" stroke="#e03131" stroke-width="2" fill="none"></path></g><g transform="translate(842.8583108137406 268.5714285714285) rotate(0 -182.85714285714283 29.285714285714278)"><path d="M-345.42 45.98 C-353.03 50.8, -361 54.77, -367.22 58.2 M-345.42 45.98 C-350.62 47.71, -355.45 51.79, -367.22 58.2" stroke="#e03131" stroke-width="2" fill="none"></path></g><g transform="translate(842.8583108137406 268.5714285714285) rotate(0 -182.85714285714283 29.285714285714278)"><path d="M-342.66 62.86 C-351.2 61.21, -360.23 58.69, -367.22 58.2 M-342.66 62.86 C-348.34 61.07, -353.74 61.64, -367.22 58.2" stroke="#e03131" stroke-width="2" fill="none"></path></g></g><mask></mask><g stroke-linecap="round"><g transform="translate(1202.8583108137404 337.14285714285705) rotate(0 168.57142857142856 9.285714285714306)"><path d="M0.7 -1 C57.22 2.11, 281.95 14.43, 338.19 17.86 M-0.4 1.09 C56.14 4.41, 281.41 16.24, 337.79 19.02" stroke="#2f9e44" stroke-width="2" fill="none"></path></g><g transform="translate(1202.8583108137404 337.14285714285705) rotate(0 168.57142857142856 9.285714285714306)"><path d="M313.89 26.36 C317.58 26.34, 323.36 24.58, 337.79 19.02 M313.89 26.36 C323.12 24.13, 332.32 20.18, 337.79 19.02" stroke="#2f9e44" stroke-width="2" fill="none"></path></g><g transform="translate(1202.8583108137404 337.14285714285705) rotate(0 168.57142857142856 9.285714285714306)"><path d="M314.77 9.28 C318.15 13.05, 323.74 15.09, 337.79 19.02 M314.77 9.28 C323.82 13.66, 332.68 16.32, 337.79 19.02" stroke="#2f9e44" stroke-width="2" fill="none"></path></g></g><mask></mask><g stroke-linecap="round"><g transform="translate(838.5725965280263 434.2857142857142) rotate(0 -121.42857142857144 268.57142857142856)"><path d="M-0.32 -0.37 C-16.73 86.86, -57.69 434.12, -98.19 523.64 C-138.69 613.17, -219.25 534.4, -243.34 536.77 M1.71 -1.61 C-14.85 85.74, -57.93 434.93, -98.94 524.84 C-139.95 614.76, -220.45 536.09, -244.36 537.89" stroke="#1971c2" stroke-width="2" fill="none"></path></g><g transform="translate(838.5725965280263 434.2857142857142) rotate(0 -121.42857142857144 268.57142857142856)"><path d="M-219.37 538.49 C-228.02 538.87, -236.5 537.23, -244.36 537.89 M-219.37 538.49 C-226.51 538.19, -232.75 538.63, -244.36 537.89" stroke="#1971c2" stroke-width="2" fill="none"></path></g><g transform="translate(838.5725965280263 434.2857142857142) rotate(0 -121.42857142857144 268.57142857142856)"><path d="M-225.6 554.41 C-232.29 549.69, -238.77 542.94, -244.36 537.89 M-225.6 554.41 C-231.08 549.79, -235.65 545.96, -244.36 537.89" stroke="#1971c2" stroke-width="2" fill="none"></path></g></g><mask></mask><g stroke-linecap="round"><g transform="translate(212.85831081374067 392.8571428571428) rotate(0 -75 -142.85714285714283)"><path d="M-0.48 0.14 C-25.28 -28.63, -147.2 -125.6, -148.8 -173.16 C-150.4 -220.72, -33.39 -266.63, -10.08 -285.2 M1.47 -0.83 C-23.38 -29.38, -147.06 -124.04, -149.12 -171.79 C-151.18 -219.53, -33.77 -268.15, -10.88 -287.28" stroke="#1971c2" stroke-width="2" fill="none"></path></g><g transform="translate(212.85831081374067 392.8571428571428) rotate(0 -75 -142.85714285714283)"><path d="M-26.58 -267.82 C-21.55 -271.59, -17.6 -279.55, -10.88 -287.28 M-26.58 -267.82 C-21.14 -275.46, -15.46 -281.96, -10.88 -287.28" stroke="#1971c2" stroke-width="2" fill="none"></path></g><g transform="translate(212.85831081374067 392.8571428571428) rotate(0 -75 -142.85714285714283)"><path d="M-35.41 -282.45 C-27.81 -281.81, -21.2 -285.38, -10.88 -287.28 M-35.41 -282.45 C-26.82 -285.17, -18.12 -286.65, -10.88 -287.28" stroke="#1971c2" stroke-width="2" fill="none"></path></g></g><mask></mask><g stroke-linecap="round"><g transform="translate(191.42973938516923 702.8571428571428) rotate(0 -71.42857142857139 -186.42857142857142)"><path d="M0.68 -0.14 C-26.05 -39.09, -162.66 -172.74, -160.07 -234.72 C-157.47 -296.7, -13.28 -349.14, 16.27 -372.01 M-0.42 -1.26 C-27.34 -39.96, -164.24 -171.3, -161.05 -233.41 C-157.86 -295.52, -11.05 -350.47, 18.7 -373.91" stroke="#1971c2" stroke-width="2" fill="none"></path></g><g transform="translate(191.42973938516923 702.8571428571428) rotate(0 -71.42857142857139 -186.42857142857142)"><path d="M2.44 -354.92 C7.65 -361.3, 12.45 -368.83, 18.7 -373.91 M2.44 -354.92 C9.05 -361.95, 13.8 -368.96, 18.7 -373.91" stroke="#1971c2" stroke-width="2" fill="none"></path></g><g transform="translate(191.42973938516923 702.8571428571428) rotate(0 -71.42857142857139 -186.42857142857142)"><path d="M-5.96 -369.82 C1.86 -371.4, 9.39 -374.08, 18.7 -373.91 M-5.96 -369.82 C3.77 -371.39, 11.63 -372.88, 18.7 -373.91" stroke="#1971c2" stroke-width="2" fill="none"></path></g></g><mask></mask><g stroke-linecap="round"><g transform="translate(1544.286882242312 688.5714285714284) rotate(0 -544.9999999999999 -25)"><path d="M-0.77 -0.59 C-182.68 -8.69, -909.51 -40.78, -1091.17 -48.88 M1.02 1.71 C-180.55 -6.67, -906.93 -41.61, -1089.07 -50.42" stroke="#2f9e44" stroke-width="2" fill="none"></path></g><g transform="translate(1544.286882242312 688.5714285714284) rotate(0 -544.9999999999999 -25)"><path d="M-1065.19 -57.83 C-1073.86 -57.55, -1078.67 -54.38, -1089.07 -50.42 M-1065.19 -57.83 C-1074.19 -55.46, -1083.36 -51.5, -1089.07 -50.42" stroke="#2f9e44" stroke-width="2" fill="none"></path></g><g transform="translate(1544.286882242312 688.5714285714284) rotate(0 -544.9999999999999 -25)"><path d="M-1066.01 -40.75 C-1074.38 -45.95, -1078.93 -48.26, -1089.07 -50.42 M-1066.01 -40.75 C-1074.82 -44.59, -1083.68 -46.84, -1089.07 -50.42" stroke="#2f9e44" stroke-width="2" fill="none"></path></g></g><mask></mask><g stroke-linecap="round"><g transform="translate(1537.1440250994547 721.4285714285713) rotate(0 -213.57142857142856 -250.7142857142857)"><path d="M0.57 0.18 C-19.39 -76.7, -49.25 -378.02, -120.39 -461.74 C-191.53 -545.45, -375.02 -495.37, -426.28 -502.1 M-0.58 -0.77 C-20.69 -77.43, -50.54 -376.97, -121.54 -460.36 C-192.54 -543.75, -375.49 -494.3, -426.6 -501.13" stroke="#e03131" stroke-width="2" fill="none"></path></g><g transform="translate(1537.1440250994547 721.4285714285713) rotate(0 -213.57142857142856 -250.7142857142857)"><path d="M-403.59 -510.91 C-409.07 -509, -415.62 -504.48, -426.6 -501.13 M-403.59 -510.91 C-408.72 -508.33, -415.75 -507.04, -426.6 -501.13" stroke="#e03131" stroke-width="2" fill="none"></path></g><g transform="translate(1537.1440250994547 721.4285714285713) rotate(0 -213.57142857142856 -250.7142857142857)"><path d="M-402.69 -493.83 C-408.33 -496.18, -415.1 -495.93, -426.6 -501.13 M-402.69 -493.83 C-407.93 -495.43, -415.17 -498.31, -426.6 -501.13" stroke="#e03131" stroke-width="2" fill="none"></path></g></g><mask></mask><g stroke-linecap="round"><g transform="translate(911.4297393851692 824.2857142857141) rotate(0 -52.85714285714289 -313.57142857142856)"><path d="M-0.36 -0.69 C-16.09 -6.26, -77.62 68.61, -95 -33.58 C-112.37 -135.77, -109.6 -514.74, -104.61 -613.83 C-99.61 -712.91, -71.48 -625.69, -65.04 -628.09 M1.65 1.56 C-14.12 -4.34, -77.83 67.58, -95.57 -35.34 C-113.31 -138.25, -109.98 -517.24, -104.79 -615.93 C-99.6 -714.62, -71.25 -625.4, -64.44 -627.48" stroke="#e03131" stroke-width="2" fill="none"></path></g><g transform="translate(911.4297393851692 824.2857142857141) rotate(0 -52.85714285714289 -313.57142857142856)"><path d="M-81.68 -639.48 C-78.56 -635.25, -71.97 -631.62, -64.44 -627.48 M-81.68 -639.48 C-76.01 -636.17, -70.55 -632.16, -64.44 -627.48" stroke="#e03131" stroke-width="2" fill="none"></path></g><g transform="translate(911.4297393851692 824.2857142857141) rotate(0 -52.85714285714289 -313.57142857142856)"><path d="M-69.93 -647.75 C-69.74 -641.51, -66.06 -635.83, -64.44 -627.48 M-69.93 -647.75 C-68.19 -641.73, -66.7 -634.93, -64.44 -627.48" stroke="#e03131" stroke-width="2" fill="none"></path></g></g><mask></mask><g stroke-linecap="round"><g transform="translate(908.5725965280263 861.4285714285713) rotate(0 -417.1428571428571 -270)"><path d="M-1.06 -0.38 C-140.17 -0.88, -696.96 81.47, -834.25 -3.38 C-971.55 -88.23, -845.07 -419.89, -824.83 -509.47 C-804.58 -599.05, -731.26 -535.59, -712.8 -540.86 M0.58 -1.63 C-138.72 -1.94, -697.44 82.38, -835.19 -2.12 C-972.93 -86.62, -846.32 -418.95, -825.88 -508.63 C-805.43 -598.31, -731.42 -534.77, -712.52 -540.2" stroke="#f08c00" stroke-width="2" fill="none"></path></g><g transform="translate(908.5725965280263 861.4285714285713) rotate(0 -417.1428571428571 -270)"><path d="M-737.42 -538 C-729.7 -538.47, -721.59 -540.16, -712.52 -540.2 M-737.42 -538 C-732.8 -539.21, -726.95 -538.49, -712.52 -540.2" stroke="#f08c00" stroke-width="2" fill="none"></path></g><g transform="translate(908.5725965280263 861.4285714285713) rotate(0 -417.1428571428571 -270)"><path d="M-733.01 -554.52 C-726.82 -549.49, -720.19 -545.64, -712.52 -540.2 M-733.01 -554.52 C-729.38 -552.05, -724.52 -547.61, -712.52 -540.2" stroke="#f08c00" stroke-width="2" fill="none"></path></g></g><mask></mask><g stroke-linecap="round"><g transform="translate(1540.0011679565978 161.4285714285714) rotate(0 -297.8571428571428 -32.14285714285717)"><path d="M-0.17 0.55 C-23.58 -10.38, -52.65 -52.16, -141.04 -66.68 C-229.43 -81.2, -454.68 -101.4, -530.49 -86.57 C-606.31 -71.74, -584.89 4.11, -595.94 22.3 M-1.72 -0.21 C-24.71 -11.41, -50.7 -53.83, -138.88 -68.56 C-227.05 -83.3, -454.61 -103.89, -530.77 -88.61 C-606.92 -73.33, -585.07 4.54, -595.81 23.11" stroke="#f08c00" stroke-width="2" fill="none"></path></g><g transform="translate(1540.0011679565978 161.4285714285714) rotate(0 -297.8571428571428 -32.14285714285717)"><path d="M-600.8 -1.39 C-598.86 3.01, -597.76 12.44, -595.81 23.11 M-600.8 -1.39 C-600.04 6.9, -596.84 15.59, -595.81 23.11" stroke="#f08c00" stroke-width="2" fill="none"></path></g><g transform="translate(1540.0011679565978 161.4285714285714) rotate(0 -297.8571428571428 -32.14285714285717)"><path d="M-583.89 1.13 C-586.16 4.88, -589.29 13.68, -595.81 23.11 M-583.89 1.13 C-589 8.46, -591.69 16.28, -595.81 23.11" stroke="#f08c00" stroke-width="2" fill="none"></path></g></g><mask></mask><g stroke-linecap="round"><g transform="translate(1535.7154536708836 395.71428571428567) rotate(0 -531.4285714285713 117.14285714285711)"><path d="M0.16 0.17 C-10.7 4.61, -46.12 -12.81, -64.6 26.28 C-83.08 65.37, 24.57 205.64, -110.73 234.73 C-246.02 263.82, -717.62 201.46, -876.36 200.83 C-1035.1 200.21, -1032.05 225.97, -1063.19 230.98 M-1.21 -0.78 C-12.19 3.81, -47.13 -11.54, -64.97 27.36 C-82.8 66.27, 27.03 203.58, -108.21 232.62 C-243.46 261.67, -717.63 202.36, -876.45 201.62 C-1035.28 200.89, -1030.26 223.44, -1061.17 228.22" stroke="#f08c00" stroke-width="2" fill="none"></path></g><g transform="translate(1535.7154536708836 395.71428571428567) rotate(0 -531.4285714285713 117.14285714285711)"><path d="M-1041.68 212.57 C-1048.25 219.91, -1056.78 222.32, -1061.17 228.22 M-1041.68 212.57 C-1048.61 218.56, -1055.16 223.75, -1061.17 228.22" stroke="#f08c00" stroke-width="2" fill="none"></path></g><g transform="translate(1535.7154536708836 395.71428571428567) rotate(0 -531.4285714285713 117.14285714285711)"><path d="M-1036.18 228.76 C-1044.62 230.46, -1055.08 227.21, -1061.17 228.22 M-1036.18 228.76 C-1044.87 229.27, -1053.28 229, -1061.17 228.22" stroke="#f08c00" stroke-width="2" fill="none"></path></g></g><mask></mask><g stroke-linecap="round"><g transform="translate(1534.286882242312 429.9999999999999) rotate(0 -199.28571428571422 -124.28571428571425)"><path d="M-0.6 1.18 C-25.62 1.39, -121.04 42.3, -149.75 0.52 C-178.45 -41.26, -131.51 -212.38, -172.82 -249.49 C-214.13 -286.61, -360.15 -226.77, -397.62 -222.17 M1.29 0.76 C-23.9 1.15, -121.42 43.63, -150.56 1.57 C-179.71 -40.48, -132.51 -213.91, -173.57 -251.57 C-214.62 -289.23, -359.37 -229.46, -396.87 -224.37" stroke="#1971c2" stroke-width="2" fill="none"></path></g><g transform="translate(1534.286882242312 429.9999999999999) rotate(0 -199.28571428571422 -124.28571428571425)"><path d="M-376.39 -238.69 C-381.33 -233.6, -391.65 -229.18, -396.87 -224.37 M-376.39 -238.69 C-382.51 -232.9, -390.34 -229.32, -396.87 -224.37" stroke="#1971c2" stroke-width="2" fill="none"></path></g><g transform="translate(1534.286882242312 429.9999999999999) rotate(0 -199.28571428571422 -124.28571428571425)"><path d="M-371.97 -222.17 C-378.29 -222.61, -390.08 -223.7, -396.87 -224.37 M-371.97 -222.17 C-379.73 -222.01, -389.08 -224.08, -396.87 -224.37" stroke="#1971c2" stroke-width="2" fill="none"></path></g></g><mask></mask></svg>