<svg version="1.1" xmlns="http://www.w3.org/2000/svg" viewBox="0 0 1514.114189836687 809" width="3028.228379673374" height="1618">
  <!-- svg-source:excalidraw -->
  
  <defs>
    <style class="style-fonts">
      @font-face {
        font-family: "Virgil";
        src: url("https://excalidraw.com/Virgil.woff2");
      }
      @font-face {
        font-family: "Cascadia";
        src: url("https://excalidraw.com/Cascadia.woff2");
      }
      @font-face {
        font-family: "Assistant";
        src: url("https://excalidraw.com/Assistant-Regular.woff2");
      }
    </style>
    
  </defs>
  <rect x="0" y="0" width="1514.114189836687" height="809" fill="#ffffff"></rect><g stroke-linecap="round" transform="translate(81.11418983668709 10) rotate(0 150 174)"><path d="M32 0 C119.12 1.47, 208.07 1.97, 268 0 M32 0 C86.66 0.05, 139.58 0.26, 268 0 M268 0 C289.51 1.56, 299.75 9.02, 300 32 M268 0 C287.98 1.15, 298.91 9.53, 300 32 M300 32 C301.79 104.24, 303.18 176.02, 300 316 M300 32 C300.83 119.54, 301.4 207.9, 300 316 M300 316 C299.61 337.22, 290.88 346.99, 268 348 M300 316 C301.07 337.81, 288.19 346.2, 268 348 M268 348 C210.98 348.58, 151.57 349.48, 32 348 M268 348 C204.83 348.48, 141.62 347.85, 32 348 M32 348 C8.77 346.63, -0.16 338.51, 0 316 M32 348 C9.81 346.9, 0.16 336.5, 0 316 M0 316 C0.35 246, 1.97 174.85, 0 32 M0 316 C1.63 207.48, 1.89 101.04, 0 32 M0 32 C1.83 10.83, 12.17 -1.77, 32 0 M0 32 C-0.37 10.41, 10.22 -1.45, 32 0" stroke="#1e1e1e" stroke-width="2" fill="none"></path></g><g stroke-linecap="round" transform="translate(506.1141898366871 21) rotate(0 150.5 168.5)"><path d="M32 0 C101.94 1.86, 171.71 0.33, 269 0 M32 0 C103.01 0.64, 172.76 1.78, 269 0 M269 0 C289.09 1.48, 299.4 10.39, 301 32 M269 0 C288.03 -1.2, 301.55 8.82, 301 32 M301 32 C299.88 110.54, 299.29 191.74, 301 305 M301 32 C300.46 122.98, 300.5 213.92, 301 305 M301 305 C299.84 324.44, 291.02 335.65, 269 337 M301 305 C299.02 328.33, 292.23 335.42, 269 337 M269 337 C195.85 339.15, 123.23 338.42, 32 337 M269 337 C199.9 335.95, 131.36 335.38, 32 337 M32 337 C10.37 336.92, -0.15 328.33, 0 305 M32 337 C8.52 338.46, -0.25 328.6, 0 305 M0 305 C0.99 230.58, 2.93 156.69, 0 32 M0 305 C0.51 214.57, -0.03 124.26, 0 32 M0 32 C0.87 12.11, 12.35 1.9, 32 0 M0 32 C0.41 10.23, 9.92 -1.45, 32 0" stroke="#1e1e1e" stroke-width="2" fill="none"></path></g><g transform="translate(158.1141898366871 33) rotate(0 28.1200008392334 12.5)"><text x="0" y="0" font-family="Virgil, Segoe UI Emoji" font-size="20px" fill="#1e1e1e" text-anchor="start" style="white-space: pre;" direction="ltr" dominant-baseline="text-before-edge">Staff</text></g><g transform="translate(590.114189836687 33) rotate(0 37.16999816894531 12.5)"><text x="0" y="0" font-family="Virgil, Segoe UI Emoji" font-size="20px" fill="#1e1e1e" text-anchor="start" style="white-space: pre;" direction="ltr" dominant-baseline="text-before-edge">doctors</text></g><g transform="translate(95.11418983668709 72) rotate(0 140.8000030517578 125)"><text x="0" y="0" font-family="Virgil, Segoe UI Emoji" font-size="20px" fill="#1e1e1e" text-anchor="start" style="white-space: pre;" direction="ltr" dominant-baseline="text-before-edge">id INT AUTO_INCREMENT </text><text x="0" y="25" font-family="Virgil, Segoe UI Emoji" font-size="20px" fill="#1e1e1e" text-anchor="start" style="white-space: pre;" direction="ltr" dominant-baseline="text-before-edge">PRIMARY KEY,</text><text x="0" y="50" font-family="Virgil, Segoe UI Emoji" font-size="20px" fill="#1e1e1e" text-anchor="start" style="white-space: pre;" direction="ltr" dominant-baseline="text-before-edge"></text><text x="0" y="75" font-family="Virgil, Segoe UI Emoji" font-size="20px" fill="#1e1e1e" text-anchor="start" style="white-space: pre;" direction="ltr" dominant-baseline="text-before-edge">staff_id INT, </text><text x="0" y="100" font-family="Virgil, Segoe UI Emoji" font-size="20px" fill="#1e1e1e" text-anchor="start" style="white-space: pre;" direction="ltr" dominant-baseline="text-before-edge">FOREIGN KEY (doctor_id) </text><text x="0" y="125" font-family="Virgil, Segoe UI Emoji" font-size="20px" fill="#1e1e1e" text-anchor="start" style="white-space: pre;" direction="ltr" dominant-baseline="text-before-edge">REFERENCES doctors(id)</text><text x="0" y="150" font-family="Virgil, Segoe UI Emoji" font-size="20px" fill="#1e1e1e" text-anchor="start" style="white-space: pre;" direction="ltr" dominant-baseline="text-before-edge"> </text><text x="0" y="175" font-family="Virgil, Segoe UI Emoji" font-size="20px" fill="#1e1e1e" text-anchor="start" style="white-space: pre;" direction="ltr" dominant-baseline="text-before-edge">position VARCHAR(100),</text><text x="0" y="200" font-family="Virgil, Segoe UI Emoji" font-size="20px" fill="#1e1e1e" text-anchor="start" style="white-space: pre;" direction="ltr" dominant-baseline="text-before-edge"></text><text x="0" y="225" font-family="Virgil, Segoe UI Emoji" font-size="20px" fill="#1e1e1e" text-anchor="start" style="white-space: pre;" direction="ltr" dominant-baseline="text-before-edge"></text></g><g transform="translate(518.114189836687 75) rotate(0 140.8000030517578 25)"><text x="0" y="0" font-family="Virgil, Segoe UI Emoji" font-size="20px" fill="#1e1e1e" text-anchor="start" style="white-space: pre;" direction="ltr" dominant-baseline="text-before-edge">id INT AUTO_INCREMENT </text><text x="0" y="25" font-family="Virgil, Segoe UI Emoji" font-size="20px" fill="#1e1e1e" text-anchor="start" style="white-space: pre;" direction="ltr" dominant-baseline="text-before-edge">PRIMARY KEY,</text></g><g transform="translate(520.114189836687 175) rotate(0 98.5099868774414 12.5)"><text x="0" y="0" font-family="Virgil, Segoe UI Emoji" font-size="20px" fill="#1e1e1e" text-anchor="start" style="white-space: pre;" direction="ltr" dominant-baseline="text-before-edge">name VARCHAR(100),</text></g><g transform="translate(528.114189836687 235) rotate(0 78.67000579833984 12.5)"><text x="0" y="0" font-family="Virgil, Segoe UI Emoji" font-size="20px" fill="#1e1e1e" text-anchor="start" style="white-space: pre;" direction="ltr" dominant-baseline="text-before-edge">speciality TEXT</text></g><g stroke-linecap="round"><g transform="translate(375.1141898366871 190) rotate(0 69.5 -43.5)"><path d="M-0.71 1 C-0.84 0.88, -23.35 14.03, -0.16 -0.51 C23.03 -15.05, 115.13 -71.72, 138.4 -86.24 M1.11 0.47 C0.76 0.5, -23.89 15.54, -1.19 0.76 C21.51 -14.02, 113.79 -73.58, 137.32 -88.18" stroke="#1e1e1e" stroke-width="2" fill="none"></path></g><g transform="translate(375.1141898366871 190) rotate(0 69.5 -43.5)"><path d="M122.07 -68.37 C129.04 -75.48, 131.86 -83.15, 137.32 -88.18 M122.07 -68.37 C127.01 -76.42, 132.72 -83.67, 137.32 -88.18" stroke="#1e1e1e" stroke-width="2" fill="none"></path></g><g transform="translate(375.1141898366871 190) rotate(0 69.5 -43.5)"><path d="M112.91 -82.81 C123.1 -84.81, 129.14 -87.42, 137.32 -88.18 M112.91 -82.81 C121.24 -85.56, 130.27 -87.57, 137.32 -88.18" stroke="#1e1e1e" stroke-width="2" fill="none"></path></g></g><mask></mask><g stroke-linecap="round" transform="translate(916.114189836687 26) rotate(0 292 196.5)"><path d="M32 0 C149.8 0.76, 266.12 1.48, 552 0 M32 0 C156.29 1.63, 281.04 1.54, 552 0 M552 0 C573.17 -1.28, 585.98 11.83, 584 32 M552 0 C571.34 -0.88, 582.42 11.3, 584 32 M584 32 C581 126.28, 583.55 222.99, 584 361 M584 32 C584.47 106.99, 584.62 180.5, 584 361 M584 361 C585.35 383.61, 573.1 392.43, 552 393 M584 361 C581.75 381.54, 573.07 391.87, 552 393 M552 393 C355.51 395.31, 159.67 395.19, 32 393 M552 393 C388.08 391.82, 224.35 392.07, 32 393 M32 393 C9.55 393.87, 1.73 382.4, 0 361 M32 393 C9.45 394.15, 2.14 381.4, 0 361 M0 361 C-0.53 279.38, 0.97 194.86, 0 32 M0 361 C-0.5 239.48, -1.23 119.15, 0 32 M0 32 C-1.09 12.5, 9.34 -0.05, 32 0 M0 32 C0.94 10.73, 11.23 -0.01, 32 0" stroke="#1e1e1e" stroke-width="2" fill="none"></path></g><g transform="translate(1038.114189836687 38) rotate(0 44.05000305175781 25)"><text x="0" y="0" font-family="Virgil, Segoe UI Emoji" font-size="20px" fill="#1e1e1e" text-anchor="start" style="white-space: pre;" direction="ltr" dominant-baseline="text-before-edge">patiaints</text><text x="0" y="25" font-family="Virgil, Segoe UI Emoji" font-size="20px" fill="#1e1e1e" text-anchor="start" style="white-space: pre;" direction="ltr" dominant-baseline="text-before-edge"></text></g><g transform="translate(931.114189836687 114) rotate(0 224.21214710582387 13.25757575757575)"><text x="0" y="0" font-family="Virgil, Segoe UI Emoji" font-size="21.21212121212121px" fill="#1e1e1e" text-anchor="start" style="white-space: pre;" direction="ltr" dominant-baseline="text-before-edge">id INT AUTO_INCREMENT PRIMARY KEY,</text></g><g transform="translate(931.114189836687 151.12121212121212) rotate(0 104.48028911243784 13.25757575757575)"><text x="0" y="0" font-family="Virgil, Segoe UI Emoji" font-size="21.21212121212121px" fill="#1e1e1e" text-anchor="start" style="white-space: pre;" direction="ltr" dominant-baseline="text-before-edge">name VARCHAR(100),</text></g><g transform="translate(931.114189836687 188.24242424242425) rotate(0 47.35605817852593 13.25757575757575)"><text x="0" y="0" font-family="Virgil, Segoe UI Emoji" font-size="21.21212121212121px" fill="#1e1e1e" text-anchor="start" style="white-space: pre;" direction="ltr" dominant-baseline="text-before-edge">age INT,</text></g><g transform="translate(931.114189836687 225.36363636363637) rotate(0 79.94848193544328 13.25757575757575)"><text x="0" y="0" font-family="Virgil, Segoe UI Emoji" font-size="21.21212121212121px" fill="#1e1e1e" text-anchor="start" style="white-space: pre;" direction="ltr" dominant-baseline="text-before-edge">docotr_id INT,</text></g><g transform="translate(931.114189836687 262.4848484848485) rotate(0 273.148526278409 13.25757575757575)"><text x="0" y="0" font-family="Virgil, Segoe UI Emoji" font-size="21.21212121212121px" fill="#1e1e1e" text-anchor="start" style="white-space: pre;" direction="ltr" dominant-baseline="text-before-edge">FOREIGN KEY (doctor_id) REFERENCES doctors(id)</text></g><g stroke-linecap="round"><g transform="translate(804.114189836687 98) rotate(0 58.5 71.5)"><path d="M-0.09 -0.81 C-0.23 -0.76, -20.39 -23.67, -0.76 0.15 C18.87 23.97, 97.98 118.44, 117.67 142.1 M-1.59 1.38 C-1.36 1.66, -18.26 -21.83, 1.55 1.76 C21.36 25.36, 97.88 119.45, 117.26 142.95" stroke="#1e1e1e" stroke-width="2" fill="none"></path></g><g transform="translate(804.114189836687 98) rotate(0 58.5 71.5)"><path d="M95.76 130.18 C101.01 132.85, 109.21 139.17, 117.26 142.95 M95.76 130.18 C100.08 132.76, 106.31 136.57, 117.26 142.95" stroke="#1e1e1e" stroke-width="2" fill="none"></path></g><g transform="translate(804.114189836687 98) rotate(0 58.5 71.5)"><path d="M109 119.35 C110.16 125.34, 114.3 134.98, 117.26 142.95 M109 119.35 C110.37 124.27, 113.62 130.51, 117.26 142.95" stroke="#1e1e1e" stroke-width="2" fill="none"></path></g></g><mask></mask><g stroke-linecap="round" transform="translate(101.11418983668709 437) rotate(0 303 160.5)"><path d="M32 0 C227.49 2.34, 422.99 2.44, 574 0 M32 0 C216.15 2.16, 400.48 2.18, 574 0 M574 0 C593.8 1.47, 605.28 11.21, 606 32 M574 0 C594.94 -1.73, 604.74 12.81, 606 32 M606 32 C607.25 97.84, 609.13 161.75, 606 289 M606 32 C605.87 122.79, 605.93 211.86, 606 289 M606 289 C607.75 310.59, 595.16 320.99, 574 321 M606 289 C607 309.3, 594.4 319.02, 574 321 M574 321 C411.73 323.89, 250.03 323.56, 32 321 M574 321 C441.24 321.26, 308.59 321.3, 32 321 M32 321 C9 319.24, -1.21 309.36, 0 289 M32 321 C9.38 321.17, -0.05 311.94, 0 289 M0 289 C2.47 206.28, 2.62 123.98, 0 32 M0 289 C0.03 220.77, -0.89 151.43, 0 32 M0 32 C-0.41 10.86, 9.4 1.14, 32 0 M0 32 C-2.19 10.87, 10.84 -1.01, 32 0" stroke="#1e1e1e" stroke-width="2" fill="none"></path></g><g transform="translate(229.1141898366871 458) rotate(0 26.1200008392334 12.5)"><text x="0" y="0" font-family="Virgil, Segoe UI Emoji" font-size="20px" fill="#1e1e1e" text-anchor="start" style="white-space: pre;" direction="ltr" dominant-baseline="text-before-edge">visits</text></g><g transform="translate(109.11418983668709 502) rotate(0 211.4000244140625 12.5)"><text x="0" y="0" font-family="Virgil, Segoe UI Emoji" font-size="20px" fill="#1e1e1e" text-anchor="start" style="white-space: pre;" direction="ltr" dominant-baseline="text-before-edge">id INT AUTO_INCREMENT PRIMARY KEY,</text></g><g transform="translate(108.11418983668709 575) rotate(0 78.8699951171875 12.5)"><text x="0" y="0" font-family="Virgil, Segoe UI Emoji" font-size="20px" fill="#1e1e1e" text-anchor="start" style="white-space: pre;" direction="ltr" dominant-baseline="text-before-edge">patient_id INT,</text></g><g transform="translate(108.11418983668709 541) rotate(0 75.37999725341797 12.5)"><text x="0" y="0" font-family="Virgil, Segoe UI Emoji" font-size="20px" fill="#1e1e1e" text-anchor="start" style="white-space: pre;" direction="ltr" dominant-baseline="text-before-edge">doctor_id INT,</text></g><g transform="translate(109.11418983668709 607) rotate(0 60.19000244140625 12.5)"><text x="0" y="0" font-family="Virgil, Segoe UI Emoji" font-size="20px" fill="#1e1e1e" text-anchor="start" style="white-space: pre;" direction="ltr" dominant-baseline="text-before-edge">date DATE,</text></g><g transform="translate(109.11418983668709 642) rotate(0 267.09002685546875 12.5)"><text x="0" y="0" font-family="Virgil, Segoe UI Emoji" font-size="20px" fill="#1e1e1e" text-anchor="start" style="white-space: pre;" direction="ltr" dominant-baseline="text-before-edge">FOREIGN KEY (patient_id) REFERENCES patients(id),</text></g><g transform="translate(109.11418983668709 677) rotate(0 257.5400390625 12.5)"><text x="0" y="0" font-family="Virgil, Segoe UI Emoji" font-size="20px" fill="#1e1e1e" text-anchor="start" style="white-space: pre;" direction="ltr" dominant-baseline="text-before-edge">FOREIGN KEY (doctor_id) REFERENCES doctors(id)</text></g><g stroke-linecap="round"><g transform="translate(102.11418983668709 558.9554148932217) rotate(0 187 -211.47770744661085)"><path d="M0.58 0.51 C-3.93 -24.79, -87.35 -116.66, -27.29 -151.28 C32.77 -185.9, 296.22 -170.41, 360.94 -207.2 C425.66 -243.99, 354.56 -335.96, 361.04 -372.03 C367.53 -408.1, 393.14 -415.3, 399.83 -423.62 M-0.57 -0.27 C-5.25 -25.44, -89.03 -115.1, -28.39 -149.92 C32.25 -184.73, 298.41 -171.78, 363.28 -209.15 C428.14 -246.51, 354.43 -338.36, 360.79 -374.1 C367.14 -409.84, 394.41 -415.52, 401.41 -423.57" stroke="#1e1e1e" stroke-width="2" fill="none"></path></g><g transform="translate(102.11418983668709 558.9554148932217) rotate(0 187 -211.47770744661085)"><path d="M387.09 -403.07 C391.88 -409.4, 394.51 -416.45, 401.41 -423.57 M387.09 -403.07 C391.47 -411.17, 397.82 -417.18, 401.41 -423.57" stroke="#1e1e1e" stroke-width="2" fill="none"></path></g><g transform="translate(102.11418983668709 558.9554148932217) rotate(0 187 -211.47770744661085)"><path d="M377.27 -417.07 C384.88 -419.5, 390.27 -422.61, 401.41 -423.57 M377.27 -417.07 C385.1 -420.17, 395.01 -421.1, 401.41 -423.57" stroke="#1e1e1e" stroke-width="2" fill="none"></path></g></g><mask></mask><g stroke-linecap="round"><g transform="translate(99.11418983668709 586.9179022564601) rotate(0 382 -131.91790225646014)"><path d="M-1.01 -0.73 C-11.84 27.63, -140.61 136.52, -64.23 170.33 C12.14 204.14, 325.48 211.08, 457.24 202.14 C589 193.2, 675.56 228.13, 726.31 116.69 C777.06 5.26, 744.71 -369.71, 761.72 -466.48 C778.73 -563.25, 817.18 -464.27, 828.38 -463.93 M0.66 1.51 C-10.41 29.98, -141.82 137.9, -65.31 171.47 C11.21 205.05, 327.73 211.95, 459.73 202.97 C591.74 193.99, 676.05 229.07, 726.72 117.59 C777.39 6.12, 747.16 -368.76, 763.76 -465.85 C780.36 -562.95, 815.89 -465.55, 826.33 -464.97" stroke="#1e1e1e" stroke-width="2" fill="none"></path></g><g transform="translate(99.11418983668709 586.9179022564601) rotate(0 382 -131.91790225646014)"><path d="M805 -478.01 C811.48 -473.54, 819.09 -469.73, 826.33 -464.97 M805 -478.01 C809.53 -474.68, 814.81 -472.17, 826.33 -464.97" stroke="#1e1e1e" stroke-width="2" fill="none"></path></g><g transform="translate(99.11418983668709 586.9179022564601) rotate(0 382 -131.91790225646014)"><path d="M818.37 -488.67 C820.06 -480.48, 822.88 -472.84, 826.33 -464.97 M818.37 -488.67 C819.97 -483.02, 822.28 -478.14, 826.33 -464.97" stroke="#1e1e1e" stroke-width="2" fill="none"></path></g></g><mask></mask><g stroke-linecap="round" transform="translate(907.114189836687 471) rotate(0 298.5 164)"><path d="M32 0 C194.43 -1.8, 354.9 -1.64, 565 0 M32 0 C234.88 -0.06, 438.33 -0.45, 565 0 M565 0 C584.85 -1.71, 595.57 9.75, 597 32 M565 0 C588.13 0.11, 596.71 10.85, 597 32 M597 32 C599.45 133.27, 598.42 232.73, 597 296 M597 32 C595.61 109.57, 596.44 186.29, 597 296 M597 296 C596.39 316.76, 588.09 328.39, 565 328 M597 296 C596.38 315.99, 586.62 327.13, 565 328 M565 328 C397.49 325.97, 229.7 326.55, 32 328 M565 328 C426.87 327.63, 289.14 327.44, 32 328 M32 328 C12.55 329.96, -1.97 317.73, 0 296 M32 328 C11.42 328.63, 1.22 319.04, 0 296 M0 296 C-0.56 200.19, -1.64 106.49, 0 32 M0 296 C1.04 240.15, 0.78 184.34, 0 32 M0 32 C1.5 8.95, 9.21 1.74, 32 0 M0 32 C-1.56 8.85, 9.21 1.08, 32 0" stroke="#1e1e1e" stroke-width="2" fill="none"></path></g><g transform="translate(1146.114189836687 476) rotate(0 54.4900016784668 25)"><text x="0" y="0" font-family="Virgil, Segoe UI Emoji" font-size="20px" fill="#1e1e1e" text-anchor="start" style="white-space: pre;" direction="ltr" dominant-baseline="text-before-edge">diaganosis </text><text x="0" y="25" font-family="Virgil, Segoe UI Emoji" font-size="20px" fill="#1e1e1e" text-anchor="start" style="white-space: pre;" direction="ltr" dominant-baseline="text-before-edge"></text></g><g transform="translate(930.114189836687 533) rotate(0 211.4000244140625 12.5)"><text x="0" y="0" font-family="Virgil, Segoe UI Emoji" font-size="20px" fill="#1e1e1e" text-anchor="start" style="white-space: pre;" direction="ltr" dominant-baseline="text-before-edge">id INT AUTO_INCREMENT PRIMARY KEY,</text></g><g transform="translate(930.114189836687 568) rotate(0 78.8699951171875 12.5)"><text x="0" y="0" font-family="Virgil, Segoe UI Emoji" font-size="20px" fill="#1e1e1e" text-anchor="start" style="white-space: pre;" direction="ltr" dominant-baseline="text-before-edge">patient_id INT,</text></g><g transform="translate(930.114189836687 603) rotate(0 75.37999725341797 12.5)"><text x="0" y="0" font-family="Virgil, Segoe UI Emoji" font-size="20px" fill="#1e1e1e" text-anchor="start" style="white-space: pre;" direction="ltr" dominant-baseline="text-before-edge">doctor_id INT,</text></g><g transform="translate(930.114189836687 638) rotate(0 60.19000244140625 12.5)"><text x="0" y="0" font-family="Virgil, Segoe UI Emoji" font-size="20px" fill="#1e1e1e" text-anchor="start" style="white-space: pre;" direction="ltr" dominant-baseline="text-before-edge">date DATE,</text></g><g transform="translate(930.114189836687 673) rotate(0 79.19000244140625 12.5)"><text x="0" y="0" font-family="Virgil, Segoe UI Emoji" font-size="20px" fill="#1e1e1e" text-anchor="start" style="white-space: pre;" direction="ltr" dominant-baseline="text-before-edge">diagnosis TEXT,</text></g><g transform="translate(930.114189836687 708) rotate(0 267.09002685546875 12.5)"><text x="0" y="0" font-family="Virgil, Segoe UI Emoji" font-size="20px" fill="#1e1e1e" text-anchor="start" style="white-space: pre;" direction="ltr" dominant-baseline="text-before-edge">FOREIGN KEY (patient_id) REFERENCES patients(id),</text></g><g transform="translate(930.114189836687 743) rotate(0 257.5400390625 12.5)"><text x="0" y="0" font-family="Virgil, Segoe UI Emoji" font-size="20px" fill="#1e1e1e" text-anchor="start" style="white-space: pre;" direction="ltr" dominant-baseline="text-before-edge">FOREIGN KEY (doctor_id) REFERENCES doctors(id)</text></g><g stroke-linecap="round"><g transform="translate(920.114189836687 583) rotate(0 -31 -225.5)"><path d="M1.01 0.96 C-9.27 -14.47, -60.96 -16.65, -61.23 -91.79 C-61.5 -166.92, -10.72 -390.05, -0.6 -449.85 M0.09 0.41 C-10.34 -15.47, -61.48 -18.46, -61.78 -93.8 C-62.07 -169.13, -11.89 -392.35, -1.68 -451.59" stroke="#1e1e1e" stroke-width="2" fill="none"></path></g><g transform="translate(920.114189836687 583) rotate(0 -31 -225.5)"><path d="M2.18 -426.89 C2.29 -434.03, -0.27 -444.76, -1.68 -451.59 M2.18 -426.89 C1.51 -435.75, -0.04 -446.63, -1.68 -451.59" stroke="#1e1e1e" stroke-width="2" fill="none"></path></g><g transform="translate(920.114189836687 583) rotate(0 -31 -225.5)"><path d="M-14.6 -430.19 C-8.72 -436.34, -5.54 -445.94, -1.68 -451.59 M-14.6 -430.19 C-8.64 -437.8, -3.56 -447.38, -1.68 -451.59" stroke="#1e1e1e" stroke-width="2" fill="none"></path></g></g><mask></mask><g stroke-linecap="round"><g transform="translate(915.114189836687 612) rotate(0 -78.5 -238.5)"><path d="M-0.45 0.58 C-24.3 -13.66, -116.18 -5.44, -142.22 -84.86 C-168.26 -164.29, -154.25 -410.51, -156.67 -475.97 M1.52 -0.17 C-22.49 -14.76, -116.3 -6.79, -142.76 -86.39 C-169.22 -165.99, -155 -412.7, -157.27 -477.77" stroke="#1e1e1e" stroke-width="2" fill="none"></path></g><g transform="translate(915.114189836687 612) rotate(0 -78.5 -238.5)"><path d="M-148.93 -454.2 C-151.17 -461.68, -153.33 -471.19, -157.27 -477.77 M-148.93 -454.2 C-151.66 -462.54, -155.32 -471.97, -157.27 -477.77" stroke="#1e1e1e" stroke-width="2" fill="none"></path></g><g transform="translate(915.114189836687 612) rotate(0 -78.5 -238.5)"><path d="M-166.03 -454.35 C-161.92 -461.71, -157.73 -471.17, -157.27 -477.77 M-166.03 -454.35 C-162.15 -462.55, -159.22 -471.92, -157.27 -477.77" stroke="#1e1e1e" stroke-width="2" fill="none"></path></g></g><mask></mask></svg>